<svg width="34" height="38" viewBox="0 0 34 38" fill="none" xmlns="http://www.w3.org/2000/svg">
<rect y="4.29032" width="33.7097" height="33.7097" rx="15" fill="#FFEECC"/>
<path d="M2.75806 12.2581H31.2581V25.2419C31.2581 30.7648 26.7809 35.2419 21.2581 35.2419H12.7581C7.23521 35.2419 2.75806 30.7648 2.75806 25.2419V12.2581Z" fill="white"/>
<rect x="4.9032" y="15.9355" width="6.43548" height="6.43548" rx="3.21774" fill="#D9D9D9"/>
<rect x="4.9032" y="25.129" width="6.43548" height="6.43548" rx="3.21774" fill="#D9D9D9"/>
<rect x="13.7903" y="15.9355" width="6.43548" height="6.43548" rx="3.21774" fill="#D9D9D9"/>
<rect x="13.7903" y="25.129" width="6.43548" height="6.43548" rx="3.21774" fill="#D9D9D9"/>
<rect x="22.6774" y="15.9355" width="6.43548" height="6.43548" rx="3.21774" fill="#D9D9D9"/>
<rect x="22.6774" y="25.129" width="6.43548" height="6.43548" rx="3.21774" fill="#D9D9D9"/>
<rect x="5.82263" y="0.6129" width="4.59677" height="7.04839" rx="2.29839" fill="white"/>
<rect x="6.43542" width="3.37097" height="7.04839" rx="1.68548" fill="#F98888"/>
<rect x="23.5968" y="0.6129" width="4.59677" height="7.04839" rx="2.29839" fill="white"/>
<rect x="24.2097" width="3.37097" height="7.04839" rx="1.68548" fill="#F98888"/>
<path fill-rule="evenodd" clip-rule="evenodd" d="M12.6719 15.2773C13.9692 14.6537 15.3904 14.3308 16.8298 14.3326L16.8288 15.1175V14.3326C16.8292 14.3326 16.8295 14.3326 16.8298 14.3326C22.1183 14.3331 26.4093 18.6122 26.4093 23.8929V25.3555C26.4093 25.7892 26.0577 26.1408 25.624 26.1408C25.1903 26.1408 24.8387 25.7892 24.8387 25.3555V23.8929C24.8387 19.4826 21.2538 15.9032 16.8288 15.9032L16.8279 15.9032C15.6247 15.9017 14.4367 16.1716 13.3523 16.6928C12.2679 17.2141 11.315 17.9732 10.5646 18.9137C10.2941 19.2527 9.8 19.3083 9.46098 19.0378C9.12197 18.7673 9.06643 18.2732 9.33692 17.9342C10.2346 16.809 11.3746 15.9009 12.6719 15.2773ZM8.0597 21.6632C8.4934 21.6632 8.84498 22.0148 8.84498 22.4485V23.9111C8.84498 28.3265 12.4274 31.9027 16.8537 31.9033C18.0544 31.9016 19.2396 31.632 20.3229 31.1141C21.4062 30.5963 22.3603 29.8433 23.1157 28.9101C23.3885 28.573 23.883 28.5209 24.2201 28.7937C24.5572 29.0666 24.6093 29.5611 24.3365 29.8982C23.4341 31.0131 22.2943 31.9126 21.0002 32.5311C19.7061 33.1497 18.2903 33.4718 16.856 33.4739H16.8549C11.5638 33.4739 7.27441 29.1975 7.27441 23.9111V22.4485C7.27441 22.0148 7.626 21.6632 8.0597 21.6632Z" fill="black"/>
<path fill-rule="evenodd" clip-rule="evenodd" d="M7.46509 21.1884C7.76696 20.8866 8.25468 20.8811 8.56317 21.1762L10.8209 23.3358C11.1343 23.6355 11.1453 24.1326 10.8455 24.446C10.5458 24.7594 10.0487 24.7705 9.73525 24.4707L8.03257 22.8421L6.41612 24.4585C6.10945 24.7652 5.61224 24.7652 5.30557 24.4585C4.99889 24.1518 4.99889 23.6546 5.30557 23.348L7.46509 21.1884ZM22.8641 23.3604C23.1638 23.047 23.6609 23.036 23.9743 23.3358L25.677 24.9644L27.2935 23.348C27.6001 23.0413 28.0974 23.0413 28.404 23.348C28.7107 23.6546 28.7107 24.1518 28.404 24.4585L26.2445 26.618C25.9426 26.9199 25.4549 26.9253 25.1464 26.6302L22.8887 24.4707C22.5753 24.1709 22.5643 23.6738 22.8641 23.3604Z" fill="black"/>
</svg>
